<?xml version="1.0" encoding="utf-8"?>
<!-- Generator: Adobe Illustrator 26.0.1, SVG Export Plug-In . SVG Version: 6.00 Build 0)  -->
<svg version="1.1" id="Layer_1" xmlns="http://www.w3.org/2000/svg" xmlns:xlink="http://www.w3.org/1999/xlink" x="0px" y="0px"
	 viewBox="0 0 41 51" style="enable-background:new 0 0 41 51;" xml:space="preserve">
<style type="text/css">
	.st0{fill:#005900;}
	.st1{fill:#227F08;}
	.st2{fill:none;}
	.st3{fill:#8B0017;}
	.st4{fill:#33AA0C;}
</style>
<path class="st0" d="M38.1,12.5c0-0.5-0.5-0.9-1-0.9h-7.7V8.7c0-4.8-3.9-8.7-8.7-8.7S12,3.9,12,8.7v2.9H4.3c-0.5,0-1,0.4-1,0.9
	L0.6,43.2C0.5,44.6,1,46,1.9,47.1c1,1.1,2.3,1.7,3.8,1.6h30c1.4,0,2.8-0.6,3.8-1.6c1-1.1,1.4-2.5,1.3-3.9L38.1,12.5z M14,8.7
	C14,5,17,2,20.7,2s6.6,3,6.6,6.6v2.9H14V8.7z M38,45.8c-0.6,0.6-1.4,1-2.3,1H5.6c-0.9,0-1.7-0.4-2.3-1s-0.9-1.5-0.8-2.3l2.6-29.8H12
	V20c-1.6,0.5-2.7,2.1-2.4,3.8c0.3,1.7,1.7,3,3.4,3s3.2-1.3,3.4-3c0.3-1.7-0.8-3.3-2.4-3.8v-6.4h13.3V20c-1.6,0.5-2.7,2.1-2.4,3.8
	c0.3,1.7,1.7,3,3.4,3s3.2-1.3,3.4-3c0.3-1.7-0.8-3.3-2.4-3.8v-6.4h6.8l2.6,29.8C38.8,44.3,38.5,45.1,38,45.8z M12.9,21.9
	c0.1,0,0.2,0,0.3,0c0.8,0.1,1.3,0.7,1.3,1.5s-0.7,1.4-1.4,1.4c-0.8,0-1.4-0.6-1.4-1.4C11.6,22.6,12.1,22,12.9,21.9z M28.2,21.9
	c0.1,0,0.2,0,0.3,0c0.8,0.1,1.3,0.7,1.3,1.5s-0.7,1.4-1.4,1.4c-0.8,0-1.4-0.6-1.4-1.4C26.9,22.6,27.4,22,28.2,21.9z"/>
<g>
	<path class="st1" d="M15.9,31.9c0.7,0,1.3,0.1,1.7,0.4s0.7,0.8,0.7,1.4c0,1.3-1,1.9-2,2.1c-0.2,0-0.4,0-0.5,0L15,35.6v1.5
		c0,0.9,0.1,0.9,1,1v0.3h-2.9v-0.3c0.8-0.1,0.9-0.2,0.9-1v-3.9c0-0.9-0.1-0.9-0.8-1v-0.3C13.2,31.9,15.9,31.9,15.9,31.9z M15,35.3
		c0.1,0,0.4,0.1,0.7,0.1c0.6,0,1.4-0.3,1.4-1.6c0-1.1-0.7-1.5-1.5-1.5c-0.3,0-0.5,0.1-0.6,0.1s0,0.2,0,0.4V35.3z"/>
	<path class="st1" d="M18.8,38.4v-0.3c0.6-0.1,0.7-0.1,0.7-0.8v-4.7c0-0.7-0.1-0.7-0.7-0.8v-0.2c0.5-0.1,1.2-0.2,1.6-0.3v6
		c0,0.7,0.1,0.7,0.8,0.8v0.3H18.8z"/>
	<path class="st1" d="M24.8,38.6c-0.2,0-0.4-0.1-0.5-0.2c-0.1-0.1-0.2-0.3-0.2-0.4c-0.4,0.3-0.9,0.6-1.2,0.6c-0.8,0-1.3-0.6-1.3-1.2
		c0-0.5,0.3-0.8,0.8-1c0.6-0.2,1.4-0.5,1.6-0.6v-0.2c0-0.7-0.3-1.1-0.8-1.1c-0.2,0-0.3,0.1-0.4,0.2c-0.1,0.1-0.2,0.4-0.3,0.7
		c-0.1,0.2-0.2,0.2-0.3,0.2c-0.2,0-0.5-0.2-0.5-0.4s0.1-0.3,0.3-0.4c0.3-0.2,1-0.6,1.6-0.7c0.3,0,0.6,0.1,0.8,0.3
		c0.4,0.3,0.5,0.7,0.5,1.3v1.8c0,0.4,0.2,0.6,0.4,0.6c0.1,0,0.3,0,0.4-0.1l0.1,0.3L24.8,38.6z M24,36c-0.2,0.1-0.6,0.3-0.8,0.4
		c-0.4,0.2-0.6,0.4-0.6,0.7c0,0.5,0.4,0.8,0.7,0.8c0.2,0,0.6-0.2,0.7-0.3C24,37.6,24,36,24,36z"/>
	<path class="st1" d="M29,38.4v-0.3c0.6-0.1,0.6-0.1,0.6-0.8v-1.6c0-0.7-0.3-1.1-0.9-1.1c-0.4,0-0.8,0.2-1.1,0.5v2.3
		c0,0.7,0.1,0.7,0.6,0.8v0.3h-2.3v-0.3c0.7-0.1,0.7-0.1,0.7-0.8v-2c0-0.6-0.1-0.7-0.6-0.8v-0.3c0.5-0.1,1-0.2,1.5-0.4v0.8
		c0.2-0.2,0.4-0.3,0.7-0.5c0.3-0.2,0.5-0.3,0.8-0.3c0.8,0,1.3,0.6,1.3,1.6v1.9c0,0.7,0.1,0.7,0.6,0.8v0.3H29V38.4z"/>
	<path class="st1" d="M33.8,38.4c-0.2,0.1-0.3,0.1-0.4,0.1c-0.7,0-1.1-0.4-1.1-1.2v-2.9h-0.7v-0.1l0.3-0.3h0.5v-0.7l0.7-0.7h0.1V34
		h1.1c0.1,0.1,0.1,0.3-0.1,0.4h-1.1V37c0,0.8,0.3,0.9,0.6,0.9c0.2,0,0.5-0.1,0.6-0.2l0.1,0.3L33.8,38.4z"/>
</g>
<path class="st2" d="M6.6,35c0.7-2.2,2.5-3.6,4.3-4.4c2.2-1,4.3-1.3,4.3-1.3H9.8L6.6,35z"/>
<g>
	<path class="st3" d="M27.9,41.1c-0.1-0.3-0.2-0.4-0.5-0.4c-0.2,0-0.3,0.1-0.3,0.3s0.2,0.3,0.4,0.4c0.3,0.1,0.6,0.3,0.6,0.6
		c0,0.4-0.4,0.6-0.7,0.6c-0.2,0-0.4-0.1-0.5-0.1c0-0.1-0.1-0.4-0.1-0.5h0.1c0.1,0.3,0.3,0.5,0.5,0.5s0.3-0.1,0.3-0.3
		s-0.1-0.3-0.3-0.4c-0.3-0.1-0.6-0.3-0.6-0.6s0.3-0.6,0.7-0.6c0.2,0,0.3,0,0.4,0.1c0,0.1,0.1,0.4,0.1,0.5L27.9,41.1z"/>
	<path class="st3" d="M29.2,42.4c-0.1,0-0.1,0.1-0.2,0.1c-0.3,0-0.5-0.2-0.5-0.5v-1.2h-0.3l0,0l0.1-0.1h0.2v-0.3l0.3-0.3h0.1v0.6
		h0.5c0,0,0,0.1,0,0.2H29V42C29,42.3,29.1,42.4,29.2,42.4c0.2,0,0.3,0,0.4-0.1v0.1H29.2z"/>
	<path class="st3" d="M30.7,40.5c0.6,0,1,0.4,1,0.9c0,0.7-0.5,1-1,1c-0.6,0-1-0.5-1-0.9C29.7,40.8,30.3,40.5,30.7,40.5L30.7,40.5z
		 M30.7,40.6c-0.3,0-0.5,0.3-0.5,0.7c0,0.5,0.2,0.9,0.6,0.9c0.3,0,0.5-0.2,0.5-0.8C31.2,41,31,40.6,30.7,40.6L30.7,40.6z"/>
	<path class="st3" d="M32.7,41c0.1-0.2,0.3-0.5,0.5-0.5s0.3,0.1,0.3,0.2c0,0.1-0.1,0.2-0.2,0.2c-0.1,0-0.1,0-0.1,0
		c-0.1-0.1-0.1-0.1-0.2-0.1c-0.1,0-0.2,0.1-0.3,0.4V42c0,0.3,0,0.3,0.4,0.3v0.1h-1v-0.1c0.3,0,0.3-0.1,0.3-0.3v-0.9
		c0-0.3,0-0.3-0.3-0.3v-0.1c0.2,0,0.4-0.1,0.6-0.2V41L32.7,41z"/>
	<path class="st3" d="M35.2,42c-0.3,0.4-0.6,0.4-0.7,0.4c-0.5,0-0.9-0.4-0.9-0.9c0-0.3,0.1-0.5,0.3-0.7s0.4-0.3,0.7-0.3l0,0
		c0.4,0,0.7,0.3,0.7,0.7c0,0.1,0,0.1-0.1,0.1s-0.6,0.1-1.1,0.1c0,0.6,0.3,0.8,0.6,0.8C34.8,42.2,35,42.1,35.2,42L35.2,42z
		 M34.5,40.7c-0.2,0-0.4,0.2-0.4,0.5c0.2,0,0.5,0,0.7,0c0.1,0,0.1,0,0.1-0.1C34.8,40.9,34.7,40.7,34.5,40.7L34.5,40.7z"/>
</g>
<path class="st4" d="M8.1,37.4c0,0,2.7,0.7,3.8-1.3c1.2-2,0.8-3.6,0.8-3.6s-0.6-1.7,1.7-2.3c1.6-0.4-9.3,1.2-6.9,5.7L8,36.5
	c0,0,0.6-3.6,3.3-4.2C11.3,32.3,8.4,35.9,8.1,37.4z"/>
</svg>
